<svg width="400" height="400" viewBox="0 0 400 400" fill="none" xmlns="http://www.w3.org/2000/svg">
<g clip-path="url(#clip0_2015_102)">
<path d="M146.81 248.657L248.655 64.71C250.05 62.1883 251.458 59.6767 252.717 57.07C253.858 54.7033 254.828 52.3133 255.46 49.7317C256.798 44.3 256.44 38.6383 254.36 33.4533C252.297 28.295 248.665 23.99 244.025 21.195C239.423 18.4096 234.008 17.2784 228.675 17.9883C223.33 18.705 218.45 21.2133 214.603 25.135C212.78 26.9983 211.277 29.07 209.883 31.285C208.35 33.7233 206.967 36.25 205.567 38.7717L199.127 50.4033L192.685 38.7717C191.29 36.2467 189.907 33.7217 188.373 31.285C186.978 29.07 185.475 26.9983 183.648 25.135C179.807 21.2133 174.927 18.7067 169.582 17.985C164.249 17.2769 158.834 18.4092 154.232 21.195C149.592 23.99 145.958 28.295 143.893 33.4533C141.817 38.6367 141.458 44.3 142.793 49.7317C143.427 52.315 144.397 54.705 145.54 57.07C146.795 59.6767 148.203 62.1867 149.602 64.71L170.402 102.282L89.36 248.657H33.825C31.0317 248.657 28.24 248.645 25.4483 248.81C22.9117 248.96 20.4417 249.283 17.9817 250C12.8017 251.51 8.27833 254.663 5.01 259.133C1.76 263.575 0 269.015 0 274.598C0 280.185 1.76167 285.618 5.01 290.06C8.27667 294.532 12.8017 297.685 17.98 299.193C20.4417 299.91 22.9133 300.232 25.4483 300.385C28.24 300.552 31.0317 300.535 33.825 300.535H252.115C252.4 299.94 253.098 298.378 253.782 296.04C260.698 272.455 243.522 248.657 219.87 248.657H146.81ZM51.8833 309.03L38.68 334.043C37.3167 336.632 35.94 339.21 34.7067 341.885C33.59 344.315 32.64 346.768 32.0217 349.418C30.7133 354.995 31.0617 360.808 33.0967 366.133C35.1167 371.425 38.6733 375.85 43.2133 378.715C47.7583 381.582 53.0317 382.742 58.235 382.007C63.4667 381.273 68.2433 378.697 72.0067 374.67C73.7933 372.757 75.2633 370.63 76.6267 368.358C78.13 365.853 79.4833 363.26 80.8517 360.672L100 324.393C98.5067 321.91 84.2117 299.887 51.8833 309.03ZM394.985 258.937C391.771 254.582 387.206 251.413 382.002 249.925C379.542 249.217 377.067 248.898 374.53 248.75C371.733 248.585 368.943 248.598 366.147 248.598H310.8L237.648 118.315C226.557 129.99 221.595 143.065 219.693 154.942C216.935 172.163 220.305 189.832 228.793 204.948L316.695 361.503C318.095 363.993 319.478 366.487 321.013 368.895C322.408 371.078 323.912 373.123 325.74 374.962C329.59 378.833 334.47 381.31 339.822 382.015C345.142 382.722 350.538 381.608 355.183 378.85C359.823 376.095 363.463 371.843 365.533 366.755C367.61 361.635 367.967 356.047 366.63 350.687C365.995 348.138 365.027 345.778 363.88 343.443C362.625 340.872 361.217 338.393 359.817 335.903L339.55 299.8H366.15C368.945 299.8 371.735 299.815 374.532 299.65C377.068 299.5 379.543 299.183 382.003 298.475C387.207 296.987 391.773 293.818 394.987 289.463C398.25 285.044 400.007 279.693 400 274.2C400.006 268.706 398.248 263.356 394.985 258.937Z" fill="#777778"/>
</g>
<defs>
<clipPath id="clip0_2015_102">
<rect width="400" height="400" fill="white"/>
</clipPath>
</defs>
</svg>
