<svg width="400" height="400" viewBox="0 0 400 400" fill="none" xmlns="http://www.w3.org/2000/svg">
<path d="M168 181C168.833 175.5 170.666 170.667 173 166.667C178 157.333 186.5 152.5 198 152.333C205.5 152.333 212.333 155.667 217.166 160.5C221.833 165.667 225 172.833 225 180H255C254.666 172.167 253.166 165 250 158.333C247.5 152 243.666 146.333 238.666 141.667C214.5 119.333 169.666 122.5 149.166 147.833C127.666 175.667 127.166 224.333 149 252.167C169.166 277 213.333 280.5 237.333 258.333C242.5 254.167 246.666 249 250 243C252.666 237 254.5 230.667 254.666 223.833H225C225 227.333 223.833 230.5 222.333 233.333C220.833 236.5 218.833 239 216.666 241.167C211.166 245.5 204.666 247.833 197.666 247.833C191.666 247.667 186.666 246.5 182.833 244C178.666 241.667 175 237.833 173 233.333C164.666 218.333 166 197.5 168 181ZM200 33.3333C108.333 33.3333 33.333 108.333 33.333 200C42.1663 421.167 358.333 421 366.666 200C366.666 108.333 291.666 33.3333 200 33.3333ZM200 333.333C126.5 333.333 66.6663 273.5 66.6663 200C73.9997 23.1666 326 23.1666 333.333 200C333.333 273.5 273.5 333.333 200 333.333Z" fill="#777778"/>
</svg>
